<svg width="964" height="309" viewBox="0 0 964 309" fill="none" xmlns="http://www.w3.org/2000/svg">
<g clip-path="url(#clip0_37_41)">
<path d="M90.13 214.92C83.24 217.46 79.79 221.6 79.79 227.31C79.79 231.48 81.41 234.41 84.66 236.1C87.91 237.8 91.67 238.65 95.95 238.65C100.23 238.65 104.31 238.03 108.67 236.79C113.03 235.55 116.67 233.16 119.6 229.61C122.52 226.06 123.99 220.82 123.99 213.87V211.55C108.3 211.26 97.01 212.37 90.12 214.91L90.13 214.92Z" fill="black"/>
<path d="M744.4 175.57C742.76 171.05 739.93 167.27 735.88 164.28C731.83 161.29 726.38 159.79 719.53 159.79C710.66 159.79 703.07 162.67 696.76 168.44C692.76 172.08 689.28 176.88 688 182.84H745.99C745.81 180.43 745.29 178.01 744.4 175.57Z" fill="black"/>
<path d="M876.25 164.99C874.76 163.89 873.15 162.97 871.41 162.22C867.62 160.57 863.25 159.74 858.28 159.74C851.5 159.74 845.8 161.49 841.14 164.99C836.49 168.5 833.02 173.23 830.75 179.22C828.46 185.2 827.31 191.87 827.31 199.17C827.31 206.47 828.46 212.87 830.75 218.78C833.03 224.69 836.5 229.4 841.14 232.9C845.8 236.4 851.5 238.15 858.28 238.15C863.26 238.15 867.62 237.33 871.41 235.67C873.15 234.92 874.76 234 876.25 232.9C880.98 229.39 884.49 224.69 886.76 218.78C889.05 212.87 890.19 206.33 890.19 199.17C890.19 192.01 889.05 185.21 886.76 179.22C884.48 173.23 880.97 168.49 876.25 164.99Z" fill="black"/>
<path d="M850 0V1.7C850 38.25 820.37 67.88 783.82 67.88H0V308.65H964V0H850ZM663.25 159.2C669.47 149.75 677.5 142.58 687.31 137.65C697.11 132.74 707.86 130.28 719.53 130.28C728.42 130.28 736.82 132.05 744.76 135.58C752.7 139.11 759.55 144.26 765.32 151.02C771.07 157.79 775.27 166.09 777.93 175.92C780.58 185.75 780.97 196.98 779.1 209.58H688.01V194.36C687.95 192.82 687.94 191.35 688.01 189.91V182.85H654.11C655.77 173.82 658.82 165.93 663.25 159.21V159.2ZM47.1 157.65C51.83 149.71 58.68 143.25 67.66 138.28C76.66 133.3 87.53 130.81 100.29 130.81C117.62 130.81 131.1 135.43 140.72 144.69C150.32 153.94 155.84 166.66 157.26 182.84H123.69C123.22 176.46 121.41 171.25 118.25 167.21C115.1 163.16 109.1 161.14 100.29 161.14C93.51 161.14 88.31 162.19 84.69 164.29C81.05 166.39 78.57 169.11 77.23 172.46C75.89 175.81 75.23 179.26 75.23 182.84H40C40 173.98 42.37 165.58 47.1 157.64V157.65ZM158 265.04H124V252.54C120.35 257.48 115.41 261.41 109.16 264.35C102.89 267.28 96.28 268.75 89.3 268.75C80.59 268.75 72.86 267.16 66.12 263.99C59.39 260.84 54.08 256.24 50.19 250.21C46.3 244.19 44.37 236.87 44.37 228.22C44.37 218.19 46.82 210.25 51.74 204.37C56.65 198.5 63.11 194.1 71.12 191.17C79.12 188.24 87.75 186.23 97.03 185.16C106.31 184.08 115.29 183.46 124 183.3V211.54H158V265.04ZM282.52 248.41C277.85 254.74 271.37 259.71 263.05 263.29C254.74 266.88 244.96 268.68 233.72 268.68C223.27 268.68 213.73 266.7 205.1 262.7C196.48 258.72 189.56 253.33 184.33 246.53C179.11 239.73 176.34 232.04 176.02 223.44H210.22C211.01 229.69 213.78 234.03 218.53 236.44C223.28 238.87 228.74 240.08 234.91 240.08C241.08 240.08 245.91 239.03 249.87 236.92C253.83 234.81 255.8 231.33 255.8 226.48C255.8 223.36 254.37 220.98 251.53 219.34C248.68 217.7 244.95 216.37 240.37 215.35C235.77 214.34 230.71 213.36 225.17 212.43C219.63 211.49 214.05 210.24 208.43 208.68C202.81 207.12 197.71 204.92 193.11 202.1C188.52 199.29 184.8 195.46 181.96 190.63C179.11 185.78 177.68 179.61 177.68 172.11C177.68 165.08 180.01 158.31 184.68 151.84C189.35 145.35 195.88 140.08 204.28 136.01C212.66 131.95 222.24 129.92 233 129.92C242.66 129.92 251.6 131.83 259.84 135.66C268.07 139.49 274.72 144.76 279.79 151.48C284.86 158.21 287.4 166.02 287.4 174.92H253.44C252.81 168.68 250.47 164.38 246.43 162.03C242.39 159.69 237.61 158.52 232.06 158.52C225.25 158.52 220.1 159.81 216.63 162.39C213.15 164.97 211.4 168.21 211.4 172.12C211.4 175.56 212.83 178.22 215.68 180.09C218.53 181.96 222.25 183.45 226.84 184.54C231.42 185.63 236.54 186.62 242.15 187.47C247.77 188.33 253.35 189.51 258.9 190.98C264.44 192.47 269.5 194.58 274.1 197.32C278.69 200.06 282.4 203.76 285.25 208.45C288.1 213.14 289.53 219.15 289.53 226.5C289.53 234.79 287.19 242.09 282.52 248.42V248.41ZM407.34 248.41C402.67 254.74 396.18 259.71 387.86 263.29C379.55 266.88 369.78 268.68 358.53 268.68C348.09 268.68 338.54 266.7 329.93 262.7C321.3 258.72 314.37 253.33 309.15 246.53C303.92 239.73 301.15 232.04 300.84 223.44H335.04C335.82 229.69 338.59 234.03 343.35 236.44C348.1 238.87 353.56 240.08 359.72 240.08C365.88 240.08 370.72 239.03 374.69 236.92C378.65 234.81 380.62 231.33 380.62 226.48C380.62 223.36 379.19 220.98 376.34 219.34C373.5 217.7 369.77 216.37 365.18 215.35C360.59 214.34 355.52 213.36 349.99 212.43C344.45 211.49 338.87 210.24 333.24 208.68C327.62 207.12 322.52 204.92 317.93 202.1C313.33 199.29 309.62 195.46 306.77 190.63C303.92 185.78 302.49 179.61 302.49 172.11C302.49 165.08 304.83 158.31 309.5 151.84C314.17 145.35 320.69 140.08 329.09 136.01C337.48 131.95 347.06 129.92 357.83 129.92C367.49 129.92 376.42 131.83 384.67 135.66C392.88 139.49 399.55 144.76 404.61 151.48C409.68 158.21 412.21 166.02 412.21 174.92H378.25C377.62 168.68 375.29 164.38 371.25 162.03C367.21 159.69 362.42 158.52 356.87 158.52C350.07 158.52 344.92 159.81 341.44 162.39C337.97 164.97 336.22 168.21 336.22 172.12C336.22 175.56 337.65 178.22 340.5 180.09C343.35 181.96 347.07 183.45 351.65 184.54C356.25 185.63 361.35 186.62 366.97 187.47C372.59 188.33 378.17 189.51 383.71 190.98C389.25 192.47 394.31 194.58 398.91 197.32C403.51 200.06 407.22 203.76 410.07 208.45C412.92 213.14 414.34 219.15 414.34 226.5C414.34 234.79 412.01 242.09 407.34 248.42V248.41ZM550 264.05H516V243.76C514.82 246.58 513.28 249.33 511.37 252.02C509.03 255.34 505.97 258.23 502.19 260.69C500.74 261.64 499.19 262.52 497.52 263.34C491.51 266.3 483.7 267.78 474.06 267.78C468.7 267.78 463.71 267.11 459.1 265.75C456.39 264.96 453.78 263.93 451.32 262.65C444.69 259.23 439.48 253.55 435.69 245.61C431.89 237.67 430 227.09 430 213.86V133.33H464V210.81C464 215.94 464.4 220.59 465.18 224.8C465.96 229 467.77 232.39 470.59 234.95C473.41 237.52 477.8 238.79 483.76 238.79C488.47 238.79 493.33 237.47 498.35 234.83C503.36 232.19 507.56 227.83 510.94 221.77C514.3 215.7 515.99 207.53 515.99 197.26V133.33H549.99V264.06L550 264.05ZM648 162.25C638.66 162.25 630.88 163.26 624.63 165.29C618.38 167.31 613.73 171 610.64 176.37C607.55 181.74 606.01 189.63 606.01 200.05V264.05H572.01V133.32H606.01V153.22C606.89 151.02 607.96 148.86 609.22 146.73C612.15 141.84 616.68 137.76 622.86 134.48C629.03 131.21 637.42 129.59 648.01 129.59V162.25H648ZM770.32 246.67C764.67 253.58 757.54 258.99 748.94 262.89C748.76 262.97 748.57 263.05 748.39 263.13C739.9 266.85 730.29 268.73 719.57 268.73C707.01 268.73 695.86 266.27 686.12 261.34C680.5 258.51 675.52 255 671.17 250.83C667.95 247.78 665.08 244.36 662.56 240.59C656.59 231.69 652.82 221.36 651.21 209.59H686.96C688.25 217.85 691.43 224.7 696.51 230.11C701.59 235.52 709.27 238.22 719.57 238.22C726.17 238.22 731.65 236.7 736.01 233.69C740.36 230.66 743.42 226.93 745.19 222.48H781.68C779.74 231.71 775.95 239.78 770.32 246.69V246.67ZM924 264.05H890V249.79C886.2 255.39 881.25 259.8 875.15 263C873.88 263.66 872.54 264.26 871.12 264.79C865.75 266.78 859.37 267.79 851.97 267.79C839.45 267.79 828.71 264.87 819.76 259.02C810.81 253.19 803.95 245.04 799.2 234.6C794.45 224.16 792.06 212.25 792.06 198.84C792.06 185.43 794.44 173.3 799.2 162.85C803.95 152.41 810.81 144.23 819.76 138.31C828.71 132.4 839.45 129.43 851.97 129.43C859.23 129.43 865.61 130.47 871.12 132.54C872.35 133.02 873.54 133.52 874.68 134.1C880.93 137.21 886.05 141.74 890.01 147.65V88.76H924.01V264.06L924 264.05Z" fill="black"/>
<path d="M398.91 197.31C394.31 194.57 389.25 192.47 383.71 190.97C378.18 189.5 372.6 188.31 366.97 187.46C361.35 186.6 356.25 185.62 351.65 184.53C347.06 183.45 343.35 181.95 340.5 180.08C337.65 178.21 336.22 175.55 336.22 172.11C336.22 168.2 337.97 164.96 341.44 162.38C344.92 159.8 350.07 158.51 356.87 158.51C362.41 158.51 367.21 159.68 371.25 162.02C375.29 164.38 377.62 168.68 378.25 174.91H412.21C412.21 166.02 409.68 158.2 404.61 151.47C399.55 144.75 392.88 139.48 384.67 135.65C376.43 131.82 367.49 129.91 357.83 129.91C347.06 129.91 337.48 131.94 329.09 136C320.7 140.07 314.17 145.34 309.5 151.83C304.83 158.31 302.49 165.07 302.49 172.1C302.49 179.6 303.92 185.77 306.77 190.62C309.62 195.45 313.34 199.29 317.93 202.09C322.52 204.91 327.62 207.1 333.24 208.67C338.86 210.23 344.44 211.49 349.99 212.42C355.52 213.36 360.59 214.33 365.18 215.34C369.78 216.35 373.5 217.69 376.34 219.33C379.19 220.97 380.62 223.35 380.62 226.47C380.62 231.31 378.64 234.8 374.69 236.91C370.72 239.02 365.9 240.07 359.72 240.07C353.54 240.07 348.09 238.86 343.35 236.43C338.59 234.01 335.82 229.68 335.04 223.43H300.84C301.15 232.03 303.92 239.72 309.15 246.52C314.37 253.31 321.3 258.71 329.93 262.69C338.54 266.69 348.09 268.67 358.53 268.67C369.77 268.67 379.54 266.87 387.86 263.28C396.17 259.7 402.67 254.72 407.34 248.4C412.01 242.08 414.34 234.77 414.34 226.48C414.34 219.14 412.92 213.12 410.07 208.43C407.22 203.73 403.5 200.03 398.91 197.3V197.31Z" fill="white"/>
<path d="M609.21 146.73C607.95 148.86 606.88 151.02 606 153.22V133.32H572V264.05H606V200.05C606 189.63 607.54 181.74 610.63 176.37C613.72 171 618.37 167.31 624.62 165.29C630.87 163.26 638.65 162.25 647.99 162.25V129.59C637.4 129.59 629.01 131.21 622.84 134.48C616.66 137.76 612.13 141.84 609.2 146.73H609.21Z" fill="white"/>
<path d="M124 213.88C124 220.83 122.53 226.07 119.61 229.62C116.68 233.18 113.04 235.56 108.68 236.8C104.32 238.04 100.24 238.66 95.96 238.66C91.68 238.66 87.92 237.81 84.67 236.11C81.41 234.42 79.8 231.48 79.8 227.32C79.8 221.61 83.25 217.47 90.14 214.93C97.02 212.39 108.32 211.28 124.01 211.57V183.33C115.3 183.49 106.31 184.11 97.04 185.19C87.76 186.26 79.13 188.28 71.13 191.2C63.12 194.13 56.67 198.53 51.75 204.4C46.84 210.28 44.38 218.21 44.38 228.25C44.38 236.9 46.31 244.22 50.2 250.24C54.09 256.26 59.4 260.86 66.13 264.02C72.86 267.18 80.59 268.78 89.31 268.78C96.28 268.78 102.9 267.31 109.17 264.38C115.42 261.44 120.37 257.51 124.01 252.57V265.07H158.01V211.59H124.01V213.91L124 213.88Z" fill="white"/>
<path d="M77.23 172.46C78.57 169.11 81.05 166.39 84.69 164.29C88.31 162.19 93.52 161.14 100.29 161.14C109.11 161.14 115.1 163.16 118.25 167.21C121.41 171.25 123.22 176.46 123.69 182.84H157.26C155.84 166.66 150.32 153.94 140.72 144.69C131.11 135.43 117.62 130.81 100.29 130.81C87.53 130.81 76.65 133.3 67.66 138.28C58.68 143.25 51.83 149.71 47.1 157.65C42.37 165.58 40 173.98 40 182.85H75.23C75.23 179.27 75.89 175.82 77.23 172.47V172.46Z" fill="white"/>
<path d="M274.1 197.31C269.5 194.57 264.44 192.47 258.9 190.97C253.36 189.5 247.78 188.31 242.15 187.46C236.54 186.6 231.42 185.62 226.84 184.53C222.24 183.45 218.53 181.95 215.68 180.08C212.83 178.21 211.4 175.55 211.4 172.11C211.4 168.2 213.15 164.96 216.63 162.38C220.1 159.8 225.25 158.51 232.06 158.51C237.6 158.51 242.39 159.68 246.43 162.02C250.47 164.38 252.81 168.68 253.44 174.91H287.4C287.4 166.02 284.86 158.2 279.79 151.47C274.72 144.75 268.07 139.48 259.84 135.65C251.61 131.82 242.66 129.91 233 129.91C222.24 129.91 212.66 131.94 204.28 136C195.89 140.07 189.35 145.34 184.68 151.83C180.01 158.31 177.68 165.07 177.68 172.1C177.68 179.6 179.11 185.77 181.96 190.62C184.8 195.45 188.53 199.29 193.11 202.09C197.71 204.91 202.81 207.1 208.43 208.67C214.04 210.23 219.62 211.49 225.17 212.42C230.71 213.36 235.77 214.33 240.37 215.34C244.96 216.35 248.68 217.69 251.53 219.33C254.37 220.97 255.8 223.35 255.8 226.47C255.8 231.31 253.82 234.8 249.87 236.91C245.91 239.02 241.08 240.07 234.91 240.07C228.74 240.07 223.27 238.86 218.53 236.43C213.78 234.01 211.01 229.68 210.22 223.43H176.02C176.34 232.03 179.11 239.72 184.33 246.52C189.56 253.31 196.48 258.71 205.1 262.69C213.73 266.69 223.27 268.67 233.72 268.67C244.95 268.67 254.73 266.87 263.05 263.28C271.36 259.7 277.85 254.72 282.52 248.4C287.19 242.07 289.53 234.77 289.53 226.48C289.53 219.14 288.1 213.12 285.25 208.43C282.4 203.73 278.68 200.03 274.1 197.3V197.31Z" fill="white"/>
<path d="M516 197.25C516 207.52 514.31 215.69 510.95 221.76C507.57 227.82 503.37 232.18 498.36 234.82C493.34 237.46 488.48 238.78 483.77 238.78C477.81 238.78 473.43 237.5 470.6 234.94C467.78 232.37 465.96 228.99 465.19 224.79C464.4 220.58 464.01 215.93 464.01 210.8V133.32H430.01V213.85C430.01 227.09 431.9 237.67 435.7 245.6C439.49 253.54 444.69 259.22 451.33 262.64C453.79 263.92 456.4 264.95 459.11 265.74C463.73 267.1 468.72 267.77 474.07 267.77C483.71 267.77 491.52 266.29 497.53 263.33C499.19 262.52 500.75 261.64 502.2 260.68C505.99 258.22 509.04 255.33 511.38 252.01C513.28 249.32 514.83 246.57 516.01 243.75V264.04H550.01V133.31H516.01V197.24L516 197.25Z" fill="white"/>
<path d="M696.76 168.44C703.07 162.67 710.66 159.79 719.53 159.79C726.38 159.79 731.83 161.29 735.88 164.28C739.93 167.27 742.76 171.05 744.4 175.57C745.29 178.01 745.81 180.43 745.99 182.84H688V189.9C687.93 191.34 687.94 192.82 688 194.35V209.57H779.09C780.97 196.97 780.57 185.75 777.92 175.91C775.26 166.08 771.06 157.78 765.31 151.01C759.54 144.25 752.69 139.1 744.75 135.57C736.81 132.04 728.41 130.27 719.52 130.27C707.85 130.27 697.11 132.73 687.3 137.64C677.49 142.57 669.46 149.74 663.24 159.19C658.81 165.91 655.76 173.8 654.1 182.83H688C689.27 176.87 692.76 172.07 696.76 168.43V168.44Z" fill="white"/>
<path d="M890 147.65C886.04 141.74 880.92 137.21 874.67 134.1C873.53 133.52 872.34 133.02 871.11 132.54C865.6 130.47 859.22 129.43 851.96 129.43C839.44 129.43 828.7 132.4 819.75 138.31C810.8 144.23 803.94 152.42 799.19 162.85C794.44 173.3 792.05 185.44 792.05 198.84C792.05 212.24 794.43 224.16 799.19 234.6C803.94 245.05 810.8 253.19 819.75 259.02C828.7 264.87 839.44 267.79 851.96 267.79C859.36 267.79 865.74 266.79 871.11 264.79C872.53 264.26 873.87 263.67 875.14 263C881.24 259.8 886.2 255.39 889.99 249.79V264.05H923.99V88.76H889.99V147.65H890ZM886.76 218.78C884.48 224.69 880.97 229.4 876.25 232.9C874.76 234 873.15 234.92 871.41 235.67C867.62 237.32 863.25 238.15 858.28 238.15C851.5 238.15 845.8 236.4 841.14 232.9C836.49 229.39 833.02 224.69 830.75 218.78C828.46 212.87 827.31 206.48 827.31 199.17C827.31 191.86 828.46 185.21 830.75 179.22C833.03 173.23 836.5 168.49 841.14 164.99C845.8 161.49 851.5 159.74 858.28 159.74C863.26 159.74 867.62 160.56 871.41 162.22C873.15 162.97 874.76 163.89 876.25 164.99C880.98 168.5 884.49 173.23 886.76 179.22C889.05 185.2 890.19 192.02 890.19 199.17C890.19 206.32 889.05 212.87 886.76 218.78Z" fill="white"/>
<path d="M736.01 233.67C731.66 236.69 726.17 238.2 719.57 238.2C709.26 238.2 701.58 235.5 696.51 230.09C691.43 224.69 688.25 217.83 686.96 209.57H651.21C652.81 221.34 656.59 231.68 662.56 240.57C665.08 244.35 667.95 247.77 671.17 250.81C675.52 254.98 680.51 258.48 686.12 261.32C695.86 266.25 707.01 268.71 719.57 268.71C730.29 268.71 739.9 266.84 748.39 263.11C748.57 263.03 748.76 262.95 748.94 262.87C757.54 258.97 764.67 253.57 770.32 246.65C775.95 239.74 779.74 231.67 781.68 222.44H745.19C743.41 226.89 740.36 230.63 736.01 233.65V233.67Z" fill="white"/>
</g>
<defs>
<clipPath id="clip0_37_41">
<rect width="964" height="308.65" fill="white"/>
</clipPath>
</defs>
</svg>
