<svg width="884" height="180" viewBox="0 0 884 180" fill="none" xmlns="http://www.w3.org/2000/svg">
<g clip-path="url(#clip0_37_39)">
<path d="M374.34 137.74C374.34 146.02 372.01 153.33 367.34 159.65C362.68 165.98 356.18 170.95 347.87 174.54C339.55 178.13 329.79 179.93 318.54 179.93C308.1 179.93 298.55 177.95 289.94 173.95C281.3 169.97 274.38 164.58 269.16 157.78C263.93 150.98 261.15 143.29 260.84 134.69H295.04C295.82 140.94 298.59 145.28 303.35 147.69C308.1 150.12 313.56 151.34 319.73 151.34C325.9 151.34 330.73 150.28 334.7 148.17C338.65 146.06 340.63 142.58 340.63 137.74C340.63 134.61 339.2 132.23 336.35 130.59C333.51 128.95 329.79 127.62 325.19 126.6C320.6 125.59 315.53 124.61 310 123.68C304.46 122.74 298.87 121.49 293.25 119.93C287.63 118.37 282.53 116.17 277.94 113.35C273.34 110.55 269.63 106.72 266.78 101.88C263.93 97.03 262.5 90.86 262.5 83.36C262.5 76.32 264.84 69.56 269.51 63.08C274.18 56.6 280.7 51.32 289.09 47.26C297.49 43.2 307.07 41.17 317.84 41.17C327.5 41.17 336.43 43.08 344.67 46.91C352.89 50.74 359.55 56.01 364.61 62.73C369.68 69.45 372.21 77.27 372.21 86.16H338.25C337.62 79.93 335.29 75.63 331.25 73.27C327.22 70.93 322.42 69.76 316.87 69.76C310.08 69.76 304.93 71.05 301.44 73.63C297.97 76.21 296.22 79.45 296.22 83.36C296.22 86.8 297.65 89.46 300.5 91.33C303.35 93.2 307.07 94.69 311.65 95.77C316.25 96.87 321.35 97.85 326.97 98.71C332.6 99.56 338.18 100.75 343.71 102.22C349.25 103.71 354.31 105.82 358.91 108.56C363.51 111.29 367.22 114.99 370.07 119.69C372.93 124.38 374.34 130.39 374.34 137.74Z" fill="white"/>
<path d="M608 40.83V73.5C598.66 73.5 590.88 74.51 584.63 76.54C578.38 78.56 573.72 82.25 570.63 87.62C567.54 92.99 566 100.88 566 111.3V175.3H532V44.5699H566V64.46C566.88 62.27 567.95 60.11 569.21 57.98C572.14 53.09 576.67 49 582.85 45.73C589.02 42.46 597.41 40.83 608 40.83Z" fill="white"/>
<path d="M118 122.81V176.29H84V163.79C80.35 168.73 75.41 172.66 69.16 175.6C62.88 178.53 56.27 180 49.3 180C40.58 180 32.85 178.41 26.12 175.25C19.39 172.09 14.08 167.49 10.19 161.47C6.3 155.45 4.37 148.13 4.37 139.48C4.37 129.45 6.82 121.51 11.74 115.63C16.65 109.77 23.11 105.37 31.12 102.44C39.12 99.5099 47.75 97.4999 57.03 96.4299C66.3 95.3499 75.29 94.7299 84 94.5699V122.81C68.31 122.51 57.02 123.62 50.13 126.17C43.24 128.71 39.79 132.85 39.79 138.56C39.79 142.72 41.41 145.66 44.66 147.35C47.91 149.05 51.67 149.91 55.95 149.91C60.23 149.91 64.31 149.29 68.67 148.05C73.04 146.81 76.67 144.42 79.61 140.87C82.53 137.32 84 132.07 84 125.13V122.81H118Z" fill="white"/>
<path d="M117.26 94.09H83.68C83.21 87.71 81.41 82.5 78.25 78.46C75.1 74.41 69.1 72.39 60.29 72.39C53.51 72.39 48.3 73.44 44.69 75.54C41.05 77.64 38.57 80.36 37.23 83.71C35.89 87.05 35.23 90.51 35.23 94.09H0C0 85.22 2.37 76.82 7.1 68.89C11.82 60.95 18.68 54.49 27.65 49.52C36.65 44.54 47.52 42.05 60.29 42.05C77.62 42.05 91.1 46.6799 100.72 55.9399C110.32 65.1899 115.84 77.9 117.26 94.09Z" fill="white"/>
<path d="M249.53 137.74C249.53 146.02 247.19 153.33 242.52 159.65C237.85 165.98 231.37 170.95 223.05 174.54C214.74 178.13 204.96 179.93 193.73 179.93C183.28 179.93 173.74 177.95 165.11 173.95C156.48 169.97 149.56 164.58 144.33 157.78C139.11 150.98 136.34 143.29 136.02 134.69H170.22C171.01 140.94 173.78 145.28 178.53 147.69C183.28 150.12 188.74 151.34 194.91 151.34C201.08 151.34 205.92 150.28 209.87 148.17C213.83 146.06 215.81 142.58 215.81 137.74C215.81 134.61 214.38 132.23 211.54 130.59C208.69 128.95 204.96 127.62 200.38 126.6C195.78 125.59 190.72 124.61 185.18 123.68C179.63 122.74 174.05 121.49 168.44 119.93C162.82 118.37 157.72 116.17 153.12 113.35C148.53 110.55 144.81 106.72 141.96 101.88C139.11 97.03 137.69 90.86 137.69 83.36C137.69 76.32 140.02 69.56 144.69 63.08C149.35 56.6 155.89 51.32 164.28 47.26C172.67 43.2 182.24 41.17 193.01 41.17C202.66 41.17 211.61 43.08 219.84 46.91C228.07 50.74 234.72 56.01 239.79 62.73C244.86 69.45 247.4 77.27 247.4 86.16H213.44C212.8 79.93 210.47 75.63 206.43 73.27C202.39 70.93 197.6 69.76 192.06 69.76C185.26 69.76 180.11 71.05 176.63 73.63C173.15 76.21 171.4 79.45 171.4 83.36C171.4 86.8 172.83 89.46 175.68 91.33C178.53 93.2 182.24 94.69 186.84 95.77C191.42 96.87 196.54 97.85 202.15 98.71C207.77 99.56 213.36 100.75 218.9 102.22C224.44 103.71 229.5 105.82 234.1 108.56C238.69 111.29 242.4 114.99 245.25 119.69C248.1 124.38 249.53 130.39 249.53 137.74Z" fill="white"/>
<path d="M510 44.5699V175.3H476V155.01C474.82 157.83 473.28 160.57 471.37 163.27C469.03 166.59 465.97 169.48 462.19 171.94C460.74 172.89 459.18 173.77 457.52 174.58C451.51 177.55 443.7 179.02 434.06 179.02C428.7 179.02 423.71 178.35 419.1 176.99C416.38 176.2 413.78 175.17 411.31 173.89C404.68 170.47 399.48 164.79 395.69 156.85C391.89 148.91 390 138.33 390 125.1V44.5699H424V122.04C424 127.17 424.4 131.83 425.18 136.04C425.96 140.24 427.77 143.62 430.59 146.19C433.42 148.76 437.81 150.03 443.76 150.03C448.48 150.03 453.33 148.72 458.35 146.07C463.37 143.43 467.57 139.07 470.95 133.01C474.31 126.94 476 118.77 476 108.5V44.5699H510Z" fill="white"/>
<path d="M739.09 120.83H648V105.6C647.94 104.07 647.93 102.59 648 101.15V94.09H705.99C705.81 91.68 705.29 89.2499 704.4 86.8199C702.76 82.2999 699.93 78.52 695.88 75.53C691.83 72.53 686.38 71.04 679.53 71.04C670.66 71.04 663.07 73.9099 656.76 79.6799C652.76 83.3199 649.27 88.13 648 94.09H614.1C615.76 85.06 618.81 77.17 623.25 70.45C629.47 61 637.49 53.82 647.31 48.89C657.11 43.98 667.86 41.53 679.53 41.53C688.41 41.53 696.82 43.3 704.76 46.83C712.69 50.36 719.55 55.51 725.31 62.27C731.06 69.04 735.27 77.34 737.92 87.17C740.57 97 740.96 108.22 739.09 120.83Z" fill="white"/>
<path d="M850 0V58.89C846.04 52.98 840.92 48.46 834.67 45.34C833.54 44.77 832.34 44.26 831.12 43.79C825.61 41.71 819.23 40.67 811.97 40.67C799.45 40.67 788.71 43.64 779.76 49.55C770.8 55.47 763.95 63.65 759.2 74.09C754.44 84.53 752.06 96.68 752.06 110.08C752.06 123.48 754.44 135.4 759.2 145.84C763.95 156.28 770.8 164.43 779.76 170.26C788.71 176.11 799.45 179.03 811.97 179.03C819.37 179.03 825.75 178.02 831.12 176.03C832.53 175.51 833.88 174.91 835.15 174.25C841.25 171.04 846.2 166.64 850 161.03V175.3H884V0H850ZM846.76 130.03C844.48 135.94 840.97 140.64 836.25 144.15C834.76 145.25 833.15 146.17 831.41 146.92C827.62 148.58 823.25 149.4 818.28 149.4C811.5 149.4 805.79 147.65 801.14 144.15C796.49 140.64 793.02 135.94 790.74 130.03C788.45 124.11 787.3 117.73 787.3 110.42C787.3 103.11 788.45 96.45 790.74 90.47C793.02 84.48 796.49 79.75 801.14 76.24C805.79 72.74 811.5 70.99 818.28 70.99C823.25 70.99 827.62 71.81 831.41 73.47C833.15 74.22 834.76 75.14 836.25 76.24C840.97 79.75 844.48 84.48 846.76 90.47C849.05 96.45 850.19 103.27 850.19 110.42C850.19 117.57 849.05 124.11 846.76 130.03Z" fill="white"/>
<path d="M741.68 133.7C739.74 142.93 735.95 151 730.32 157.91C724.68 164.83 717.55 170.23 708.95 174.13C708.76 174.21 708.58 174.29 708.39 174.37C699.91 178.1 690.29 179.97 679.58 179.97C667.01 179.97 655.87 177.51 646.13 172.58C640.51 169.74 635.52 166.24 631.17 162.07C627.95 159.03 625.08 155.6 622.56 151.83C616.6 142.93 612.82 132.6 611.21 120.83H646.96C648.25 129.09 651.44 135.94 656.51 141.34C661.59 146.75 669.27 149.45 679.58 149.45C686.18 149.45 691.66 147.93 696.01 144.92C700.37 141.89 703.42 138.15 705.2 133.7H741.68Z" fill="white"/>
</g>
<defs>
<clipPath id="clip0_37_39">
<rect width="884" height="180" fill="white"/>
</clipPath>
</defs>
</svg>
