<svg width="288" height="288" viewBox="0 0 288 288" fill="none" xmlns="http://www.w3.org/2000/svg">
<path d="M135.13 183.096C128.24 185.637 124.79 189.779 124.79 195.491C124.79 199.663 126.41 202.594 129.66 204.285C132.91 205.986 136.67 206.836 140.95 206.836C145.23 206.836 149.31 206.216 153.67 204.975C158.03 203.735 161.67 201.344 164.6 197.792C167.52 194.241 168.99 188.999 168.99 182.046V179.725C153.3 179.435 142.01 180.545 135.12 183.086L135.13 183.096Z" fill="black"/>
<path d="M169 182.056C169 189.009 167.53 194.251 164.61 197.802C161.68 201.364 158.04 203.745 153.68 204.985C149.32 206.226 145.24 206.846 140.96 206.846C136.68 206.846 132.92 205.996 129.67 204.295C126.41 202.604 124.8 199.663 124.8 195.501C124.8 189.789 128.25 185.647 135.14 183.106C142.02 180.565 153.32 179.445 169.01 179.745V151.493C160.3 151.653 151.31 152.273 142.04 153.354C132.76 154.424 124.13 156.445 116.13 159.366C108.12 162.298 101.67 166.699 96.75 172.572C91.84 178.454 89.38 186.388 89.38 196.432C89.38 205.085 91.31 212.408 95.2 218.431C99.09 224.453 104.4 229.055 111.13 232.217C117.86 235.378 125.59 236.979 134.31 236.979C141.28 236.979 147.9 235.508 154.17 232.577C160.42 229.636 165.37 225.704 169.01 220.762V233.267H203.01V179.765H169.01V182.086L169 182.056Z" fill="white"/>
<path d="M122.23 140.619C123.57 137.267 126.05 134.546 129.69 132.445C133.31 130.344 138.52 129.294 145.29 129.294C154.11 129.294 160.1 131.315 163.25 135.366C166.41 139.408 168.22 144.62 168.69 151.003H202.26C200.84 134.816 195.32 122.091 185.72 112.837C176.11 103.573 162.62 98.9412 145.29 98.9412C132.53 98.9412 121.65 101.432 112.66 106.414C103.68 111.386 96.83 117.849 92.1 125.792C87.37 133.726 85 142.129 85 151.003H120.23C120.23 147.421 120.89 143.97 122.23 140.619Z" fill="white"/>
<path d="M150 0V1.70072C150 38.266 120.37 67.9083 83.82 67.9083H24V288H264V0H150ZM92.1 125.792C96.83 117.849 103.68 111.386 112.66 106.414C121.66 101.432 132.53 98.9412 145.29 98.9412C162.62 98.9412 176.1 103.573 185.72 112.837C195.32 122.091 200.84 134.816 202.26 151.003H168.69C168.22 144.62 166.41 139.408 163.25 135.366C160.1 131.315 154.1 129.294 145.29 129.294C138.51 129.294 133.31 130.344 129.69 132.445C126.05 134.546 123.57 137.267 122.23 140.619C120.89 143.97 120.23 147.421 120.23 151.003H85C85 142.139 87.37 133.736 92.1 125.792ZM203 233.237H169V220.732C165.35 225.674 160.41 229.606 154.16 232.547C147.89 235.478 141.28 236.949 134.3 236.949C125.59 236.949 117.86 235.358 111.12 232.187C104.39 229.035 99.08 224.434 95.19 218.401C91.3 212.378 89.37 205.055 89.37 196.402C89.37 186.368 91.82 178.424 96.74 172.542C101.65 166.669 108.11 162.268 116.12 159.336C124.12 156.405 132.75 154.394 142.03 153.324C151.31 152.243 160.29 151.623 169 151.463V179.715H203V233.237Z" fill="black"/>
</svg>
