<svg width="816" height="406" viewBox="0 0 816 406" fill="none" xmlns="http://www.w3.org/2000/svg">
<path fill-rule="evenodd" clip-rule="evenodd" d="M204 304H102V202H204V304ZM109 203C105.686 203 103 205.686 103 209V297C103 300.314 105.686 303 109 303H197C200.314 303 203 300.314 203 297V209C203 205.686 200.314 203 197 203H109Z" fill="#373737"/>
<path fill-rule="evenodd" clip-rule="evenodd" d="M408 304H306V202H408V304ZM313 203C309.686 203 307 205.686 307 209V297C307 300.314 309.686 303 313 303H401C404.314 303 407 300.314 407 297V209C407 205.686 404.314 203 401 203H313Z" fill="#373737"/>
<path fill-rule="evenodd" clip-rule="evenodd" d="M204 406H102V304H204V406ZM109 305C105.686 305 103 307.686 103 311V399C103 402.314 105.686 405 109 405H197C200.314 405 203 402.314 203 399V311C203 307.686 200.314 305 197 305H109Z" fill="#373737"/>
<path fill-rule="evenodd" clip-rule="evenodd" d="M408 406H306V304H408V406ZM313 305C309.686 305 307 307.686 307 311V399C307 402.314 309.686 405 313 405H401C404.314 405 407 402.314 407 399V311C407 307.686 404.314 305 401 305H313Z" fill="#373737"/>
<path fill-rule="evenodd" clip-rule="evenodd" d="M102 304H0V202H102V304ZM7 203C3.68629 203 1 205.686 1 209V297C1 300.314 3.68629 303 7 303H95C98.3137 303 101 300.314 101 297V209C101 205.686 98.3137 203 95 203H7Z" fill="#373737"/>
<path fill-rule="evenodd" clip-rule="evenodd" d="M306 304H204V202H306V304ZM211 203C207.686 203 205 205.686 205 209V297C205 300.314 207.686 303 211 303H299C302.314 303 305 300.314 305 297V209C305 205.686 302.314 203 299 203H211Z" fill="#373737"/>
<path fill-rule="evenodd" clip-rule="evenodd" d="M102 406H0V304H102V406ZM7 305C3.68629 305 1 307.686 1 311V399C1 402.314 3.68629 405 7 405H95C98.3137 405 101 402.314 101 399V311C101 307.686 98.3137 305 95 305H7Z" fill="#373737"/>
<path fill-rule="evenodd" clip-rule="evenodd" d="M306 406H204V304H306V406ZM211 305C207.686 305 205 307.686 205 311V399C205 402.314 207.686 405 211 405H299C302.314 405 305 402.314 305 399V311C305 307.686 302.314 305 299 305H211Z" fill="#373737"/>
<path fill-rule="evenodd" clip-rule="evenodd" d="M204 102H102V0H204V102ZM109 1C105.686 1 103 3.68629 103 7V95C103 98.3137 105.686 101 109 101H197C200.314 101 203 98.3137 203 95V7C203 3.68629 200.314 1 197 1H109Z" fill="#373737"/>
<path fill-rule="evenodd" clip-rule="evenodd" d="M408 102H306V0H408V102ZM313 1C309.686 1 307 3.68629 307 7V95C307 98.3137 309.686 101 313 101H401C404.314 101 407 98.3137 407 95V7C407 3.68629 404.314 1 401 1H313Z" fill="#373737"/>
<path fill-rule="evenodd" clip-rule="evenodd" d="M204 204H102V102H204V204ZM109 103C105.686 103 103 105.686 103 109V197C103 200.314 105.686 203 109 203H197C200.314 203 203 200.314 203 197V109C203 105.686 200.314 103 197 103H109Z" fill="#373737"/>
<path fill-rule="evenodd" clip-rule="evenodd" d="M408 204H306V102H408V204ZM313 103C309.686 103 307 105.686 307 109V197C307 200.314 309.686 203 313 203H401C404.314 203 407 200.314 407 197V109C407 105.686 404.314 103 401 103H313Z" fill="#373737"/>
<path fill-rule="evenodd" clip-rule="evenodd" d="M102 102H0V0H102V102ZM7 1C3.68629 1 1 3.68629 1 7V95C1 98.3137 3.68629 101 7 101H95C98.3137 101 101 98.3137 101 95V7C101 3.68629 98.3137 1 95 1H7Z" fill="#373737"/>
<path fill-rule="evenodd" clip-rule="evenodd" d="M306 102H204V0H306V102ZM211 1C207.686 1 205 3.68629 205 7V95C205 98.3137 207.686 101 211 101H299C302.314 101 305 98.3137 305 95V7C305 3.68629 302.314 1 299 1H211Z" fill="#373737"/>
<path fill-rule="evenodd" clip-rule="evenodd" d="M102 204H0V102H102V204ZM7 103C3.68629 103 1 105.686 1 109V197C1 200.314 3.68629 203 7 203H95C98.3137 203 101 200.314 101 197V109C101 105.686 98.3137 103 95 103H7Z" fill="#373737"/>
<path fill-rule="evenodd" clip-rule="evenodd" d="M306 204H204V102H306V204ZM211 103C207.686 103 205 105.686 205 109V197C205 200.314 207.686 203 211 203H299C302.314 203 305 200.314 305 197V109C305 105.686 302.314 103 299 103H211Z" fill="#373737"/>
<path fill-rule="evenodd" clip-rule="evenodd" d="M612 304H510V202H612V304ZM517 203C513.686 203 511 205.686 511 209V297C511 300.314 513.686 303 517 303H605C608.314 303 611 300.314 611 297V209C611 205.686 608.314 203 605 203H517Z" fill="#373737"/>
<path fill-rule="evenodd" clip-rule="evenodd" d="M816 304H714V202H816V304ZM721 203C717.686 203 715 205.686 715 209V297C715 300.314 717.686 303 721 303H809C812.314 303 815 300.314 815 297V209C815 205.686 812.314 203 809 203H721Z" fill="#373737"/>
<path fill-rule="evenodd" clip-rule="evenodd" d="M612 406H510V304H612V406ZM517 305C513.686 305 511 307.686 511 311V399C511 402.314 513.686 405 517 405H605C608.314 405 611 402.314 611 399V311C611 307.686 608.314 305 605 305H517Z" fill="#373737"/>
<path fill-rule="evenodd" clip-rule="evenodd" d="M816 406H714V304H816V406ZM721 305C717.686 305 715 307.686 715 311V399C715 402.314 717.686 405 721 405H809C812.314 405 815 402.314 815 399V311C815 307.686 812.314 305 809 305H721Z" fill="#373737"/>
<path fill-rule="evenodd" clip-rule="evenodd" d="M510 304H408V202H510V304ZM415 203C411.686 203 409 205.686 409 209V297C409 300.314 411.686 303 415 303H503C506.314 303 509 300.314 509 297V209C509 205.686 506.314 203 503 203H415Z" fill="#373737"/>
<path fill-rule="evenodd" clip-rule="evenodd" d="M714 304H612V202H714V304ZM619 203C615.686 203 613 205.686 613 209V297C613 300.314 615.686 303 619 303H707C710.314 303 713 300.314 713 297V209C713 205.686 710.314 203 707 203H619Z" fill="#373737"/>
<path fill-rule="evenodd" clip-rule="evenodd" d="M510 406H408V304H510V406ZM415 305C411.686 305 409 307.686 409 311V399C409 402.314 411.686 405 415 405H503C506.314 405 509 402.314 509 399V311C509 307.686 506.314 305 503 305H415Z" fill="#373737"/>
<path fill-rule="evenodd" clip-rule="evenodd" d="M714 406H612V304H714V406ZM619 305C615.686 305 613 307.686 613 311V399C613 402.314 615.686 405 619 405H707C710.314 405 713 402.314 713 399V311C713 307.686 710.314 305 707 305H619Z" fill="#373737"/>
<path fill-rule="evenodd" clip-rule="evenodd" d="M612 102H510V0H612V102ZM517 1C513.686 1 511 3.68629 511 7V95C511 98.3137 513.686 101 517 101H605C608.314 101 611 98.3137 611 95V7C611 3.68629 608.314 1 605 1H517Z" fill="#373737"/>
<path fill-rule="evenodd" clip-rule="evenodd" d="M816 102H714V0H816V102ZM721 1C717.686 1 715 3.68629 715 7V95C715 98.3137 717.686 101 721 101H809C812.314 101 815 98.3137 815 95V7C815 3.68629 812.314 1 809 1H721Z" fill="#373737"/>
<path fill-rule="evenodd" clip-rule="evenodd" d="M612 204H510V102H612V204ZM517 103C513.686 103 511 105.686 511 109V197C511 200.314 513.686 203 517 203H605C608.314 203 611 200.314 611 197V109C611 105.686 608.314 103 605 103H517Z" fill="#373737"/>
<path fill-rule="evenodd" clip-rule="evenodd" d="M816 204H714V102H816V204ZM721 103C717.686 103 715 105.686 715 109V197C715 200.314 717.686 203 721 203H809C812.314 203 815 200.314 815 197V109C815 105.686 812.314 103 809 103H721Z" fill="#373737"/>
<path fill-rule="evenodd" clip-rule="evenodd" d="M510 102H408V0H510V102ZM415 1C411.686 1 409 3.68629 409 7V95C409 98.3137 411.686 101 415 101H503C506.314 101 509 98.3137 509 95V7C509 3.68629 506.314 1 503 1H415Z" fill="#373737"/>
<path fill-rule="evenodd" clip-rule="evenodd" d="M714 102H612V0H714V102ZM619 1C615.686 1 613 3.68629 613 7V95C613 98.3137 615.686 101 619 101H707C710.314 101 713 98.3137 713 95V7C713 3.68629 710.314 1 707 1H619Z" fill="#373737"/>
<path fill-rule="evenodd" clip-rule="evenodd" d="M510 204H408V102H510V204ZM415 103C411.686 103 409 105.686 409 109V197C409 200.314 411.686 203 415 203H503C506.314 203 509 200.314 509 197V109C509 105.686 506.314 103 503 103H415Z" fill="#373737"/>
<path fill-rule="evenodd" clip-rule="evenodd" d="M714 204H612V102H714V204ZM619 103C615.686 103 613 105.686 613 109V197C613 200.314 615.686 203 619 203H707C710.314 203 713 200.314 713 197V109C713 105.686 710.314 103 707 103H619Z" fill="#373737"/>
</svg>
