<?xml version="1.0" encoding="utf-8"?>
<svg version="1.1" id="lloyds-broker-logo" xmlns="http://www.w3.org/2000/svg" xmlns:xlink="http://www.w3.org/1999/xlink" x="0px"
	 y="0px" viewBox="0 0 228.2 56.7" style="enable-background:new 0 0 228.2 56.7;" xml:space="preserve">
<style type="text/css">
	.lloyds-st0{fill:#FFFFFF;}
</style>
<g>
	<path class="lloyds-st0" d="M58,19.9c-2.9,0-5.8,2.2-5.8,8c0,4.9,2.5,9.4,6.9,9.4c3.6,0,5.8-2.8,5.8-8.2C65,23.5,62,19.9,58,19.9z"/>
	<path class="lloyds-st0" d="M95.3,20.2c-0.5,0-1.3,0.1-1.5,0.2s-0.3,0.3-0.3,0.5c0,0.9-0.1,2.9-0.1,5V33c0,2.6,0.1,3.1,0.5,3.5
		s1.2,0.8,3,0.8c5.3,0,7.7-2.7,7.7-8.1C104.7,22.9,100.7,20.2,95.3,20.2z"/>
	<path class="lloyds-st0" d="M0,0v56.7h141.8V0H0z M31.4,37.6c-0.2,0.5-0.2,0.6-0.2,0.6H18v-0.6c0.4,0,1.2-0.1,1.4-0.1
		c0.5-0.1,0.7-0.5,0.8-1.2c0.1-0.8,0.1-3,0.1-5.2v-4.9c0-3.7,0-4.2-0.1-5c-0.1-0.8-0.2-1.2-1-1.4c-0.2,0-0.9-0.1-1.2-0.1v-0.6h5.4
		v2.1c0,0,0,1.3,0,5v4.9c0,3.4,0,4.8,0.5,5.3c0.4,0.4,1.5,0.5,3.4,0.5c1.7,0,2.3-0.1,2.9-0.7c0.5-0.5,0.7-1.1,1-2.1h0.9
		C32.1,34.1,31.6,36.9,31.4,37.6z M46.8,37.6c-0.2,0.5-0.2,0.6-0.2,0.6H33.4v-0.6c0.4,0,1.2-0.1,1.4-0.1c0.5-0.1,0.7-0.5,0.8-1.2
		c0.1-0.8,0.1-3,0.1-5.2v-4.9c0-3.7,0-4.2-0.1-5c-0.1-0.8-0.2-1.2-1-1.4c-0.2,0-0.9-0.1-1.2-0.1v-0.6h5.4v2.1c0,0,0,1.3,0,5v4.9
		c0,3.4,0,4.8,0.5,5.3c0.4,0.4,1.5,0.5,3.4,0.5c1.7,0,2.3-0.1,2.9-0.7c0.5-0.5,0.7-1.1,1-2.1h0.9C47.5,34.1,47,36.9,46.8,37.6z
		 M58.5,38.5c-6.9,0-9.6-5.3-9.6-9.9s2.9-9.9,9.8-9.9c6.1,0,9.7,3.8,9.7,9.5S64.7,38.5,58.5,38.5z M87.4,19.7
		c-1.2,0-1.8,0.4-2.6,1.4c-0.8,1-4.2,7.3-4.7,8.3c-0.4,0.9-0.4,1.7-0.4,2.5v2c0,0.4,0,1.3,0.1,2.3c0.1,0.7,0.3,1.3,1,1.3
		c0.3,0,1.2,0.1,1.5,0.1v0.6h-8.2v-0.6c0.3,0,1.3,0,1.5-0.1c0.3-0.1,0.8-0.2,0.9-1.3c0.1-1,0.1-1.9,0.1-2.3v-2
		c0-1.3-0.2-1.9-0.6-2.6c-0.2-0.4-3.5-6.3-4.3-7.6c-0.6-0.9-1.2-1.4-1.7-1.7c-0.3-0.2-1.1-0.3-1.4-0.3v-0.6h5.1c0,0,0.1,0.3,0.8,1.8
		c0.3,0.7,3.7,7,4.1,7.7c0,0,3.4-6.5,5-9.5h3.7L87.4,19.7L87.4,19.7z M105.3,35.5c-1.1,1.2-3.4,2.7-8,2.7c-2.9,0-9.5,0-9.5,0v-0.6
		c1.6-0.1,2.3,0,2.5-1.4c0.1-1,0.1-3.9,0.1-5.1v-4.9c0-3.7,0-4.2-0.1-5S90,20,89.2,19.8c-0.2,0-0.9-0.1-1.3-0.1v-0.6h7.8
		c3.1,0,7.1,0,9.8,2.8c1.2,1.3,2.4,3.3,2.4,6.4C107.9,31.6,106.6,34.1,105.3,35.5z M109.1,23.2l-0.6-0.5c0.8-1,0.7-3.8,0-4.6V18
		c0.6,0,1.6,0.2,2.1,0.3c0.4,0.1,0.4,0.2,0.6,0.3C111.4,20.3,110,22.7,109.1,23.2z M116.6,38.5c-1.5,0-3.7-0.3-4.6-0.8
		c0,0-0.1-0.1-0.1-0.7c0-1.3,0.1-3.5,0.1-3.8h0.6c0.1,0.4,0.2,1,0.4,1.6c0.5,1.8,2,2.5,3.8,2.5c2.1,0,3.5-1,3.5-3
		c0-1.5-1-2.4-2.8-3.7l-1.1-0.9c-2.3-1.8-4-3.5-4-6c0-2.8,2.2-4.9,5.9-4.9c1.5,0,3.1,0.3,3.7,0.4c0.2,0.1,0.4,0.1,0.4,0.3
		c0,0.3-0.1,1.7-0.1,3.7h-0.6c-0.6-2.1-1-3.2-3.6-3.2c-2.1,0-3.2,1.3-3.2,2.7c0,1.2,1,2.5,2.9,3.9l1.1,0.9c2.8,2.1,3.9,3.4,3.9,5.8
		C122.9,36.2,120.6,38.5,116.6,38.5z"/>
</g>
<path class="lloyds-st0" d="M151.4,19.2h8.2c2,0,3.5,0.5,4.5,1.6c0.8,0.8,1.3,1.9,1.3,3.3c0,2.1-1.2,3.4-3.2,4v0.1c2.3,0.5,4,2.1,4,4.6
	c0,1.5-0.5,2.8-1.5,3.7c-1.1,1.1-2.7,1.8-4.7,1.8h-8.6V19.2z M159.2,27.2c2.2,0,3.5-1.1,3.5-3c0-1.8-1.2-2.8-3.2-2.8H154v5.8H159.2z
	 M159.8,35.8c1.3,0,2.2-0.3,2.9-0.9c0.5-0.5,0.8-1.3,0.8-2.1c0-2.3-1.6-3.4-3.9-3.4H154v6.5h5.8V35.8z"/>
<path class="lloyds-st0" d="M171.1,26.9L171.1,26.9c0.9-1.6,2.3-2.7,4.1-2.7c0.4,0,0.6,0.1,0.9,0.2v2.2H176c-0.3-0.1-0.6-0.1-1-0.1
	c-2.1,0-3.9,1.6-3.9,4.2v7.5h-2.4V24.4h2.3L171.1,26.9L171.1,26.9z"/>
<path class="lloyds-st0" d="M177.1,31.3c0-4,2.6-7.2,6.7-7.2s6.7,3.2,6.7,7.2s-2.5,7.2-6.7,7.2S177.1,35.3,177.1,31.3z M188.1,31.3
	c0-3-1.5-5.3-4.3-5.3s-4.3,2.3-4.3,5.3s1.5,5.3,4.3,5.3S188.1,34.3,188.1,31.3z"/>
<path class="lloyds-st0" d="M197.4,30.9l-1.9,1.8v5.4H193v-19h2.4v9c0,0.5-0.1,1.5-0.1,2.1l5.9-5.8h3l-5.2,4.9l5.8,8.8H202L197.4,30.9z"/>
<path class="lloyds-st0" d="M205.4,31.3c0-4,2.6-7.2,6.6-7.2c2,0,3.6,0.8,4.7,2.1c1.1,1.4,1.7,3.3,1.7,5.6h-10.5c0.2,2.7,1.6,4.7,4.3,4.7
	c1.9,0,3.2-0.9,3.6-2.3h2.3c-0.6,2.6-2.8,4.3-6,4.3C207.9,38.5,205.4,35.3,205.4,31.3z M207.9,30.2h7.9c-0.1-2.6-1.5-4.2-3.9-4.2
	C209.5,25.9,208.2,27.7,207.9,30.2z"/>
<path class="lloyds-st0" d="M223.2,26.9L223.2,26.9c0.9-1.6,2.3-2.7,4.1-2.7c0.4,0,0.6,0.1,0.9,0.2v2.2h-0.1c-0.3-0.1-0.6-0.1-1-0.1
	c-2.1,0-3.9,1.6-3.9,4.2v7.5h-2.4V24.4h2.3L223.2,26.9L223.2,26.9z"/>
</svg>
